<?xml version="1.0" encoding="UTF-8"?>
<svg width="32px" height="32px" viewBox="0 0 32 32" version="1.1" xmlns="http://www.w3.org/2000/svg" xmlns:xlink="http://www.w3.org/1999/xlink">
    <title>coal</title>
    <defs>
        <circle id="path-1" cx="16" cy="16" r="16"></circle>
    </defs>
    <g id="Page-2" stroke="none" stroke-width="1" fill="none" fill-rule="evenodd">
        <g id="icons-for-map">
            <g id="coal">
                <mask id="mask-2" fill="white">
                    <use xlink:href="#path-1"></use>
                </mask>
                <use id="Mask" fill="#FFFFFF" xlink:href="#path-1"></use>
                <path d="M16,0 C24.836556,0 32,7.163444 32,16 C32,24.836556 24.836556,32 16,32 C7.163444,32 0,24.836556 0,16 C0,7.163444 7.163444,0 16,0 Z M10.6818182,19.5454545 C9.70276794,19.5454545 8.90909091,20.3391316 8.90909091,21.3181818 C8.90909091,22.2972321 9.70276794,23.0909091 10.6818182,23.0909091 C11.6608684,23.0909091 12.4545455,22.2972321 12.4545455,21.3181818 C12.4545455,20.3391316 11.6608684,19.5454545 10.6818182,19.5454545 Z M20.1363636,19.5454545 C19.1573134,19.5454545 18.3636364,20.3391316 18.3636364,21.3181818 C18.3636364,22.2972321 19.1573134,23.0909091 20.1363636,23.0909091 C21.1154139,23.0909091 21.9090909,22.2972321 21.9090909,21.3181818 C21.9090909,20.3391316 21.1154139,19.5454545 20.1363636,19.5454545 Z M21.9712146,12.4545455 L8.8696959,12.4545455 C8.12873598,12.4545455 7.58985603,13.1873174 7.75825602,13.9558343 L8.9202159,19.1746004 C9.35805586,18.8886407 9.8800958,18.7456608 10.4189758,18.7456608 C12.0524556,18.7456608 13.3828155,20.1575872 13.3828155,21.9090909 L17.4244151,21.9090909 C17.4244151,20.1754597 18.7547749,18.7456608 20.3882548,18.7456608 C20.9271347,18.7456608 21.4491747,18.9065131 21.8870146,19.1746004 L23.0489745,13.9558343 C23.2510545,13.1873174 22.6953345,12.4545455 21.9712146,12.4545455 Z M16.2878354,6.54545455 C15.4073978,6.54545455 14.6962751,7.29490022 14.5946861,8.29416112 C14.4253712,8.2172949 14.2391248,8.15964523 14.0359469,8.15964523 C13.3417557,8.15964523 12.7491534,8.64005913 12.4613181,9.33185514 C12.2581401,9.23577236 12.0549622,9.17812269 11.8179213,9.17812269 C10.8528263,9.17812269 10.0909091,10.0428677 10.0909091,11.1189948 C10.0909091,11.1766445 10.0909091,11.2150776 10.1078406,11.2727273 L21.9090909,11.2727273 C21.9090909,10.1773836 21.1471737,9.31263858 20.1820787,9.31263858 L20.1651472,9.31263858 C20.1651472,9.25498891 20.1820787,9.23577236 20.1820787,9.17812269 C20.1820787,8.10199557 19.40323,7.218034 18.4550664,7.218034 C18.1841625,7.218034 17.9301902,7.29490022 17.6931493,7.42941611 C17.3714509,6.91056911 16.8804376,6.54545455 16.2878354,6.54545455 Z" id="Shape-Copy-2" fill="#237ABA" fill-rule="nonzero" mask="url(#mask-2)"></path>
            </g>
        </g>
    </g>
</svg>